<svg width="329.25" height="48" viewBox="0 0 1756 256" fill="none" xmlns="http://www.w3.org/2000/svg" xmlns:xlink="http://www.w3.org/1999/xlink" version="1.1">
      <g transform="translate(0, 0)"><svg xmlns="http://www.w3.org/2000/svg" width="256" height="256" fill="none" viewBox="0 0 256 256"><rect width="256" height="256" fill="#242938" rx="60"/><path fill="#ECEFF1" d="m85.95 199.926 24.53 13.62h37.096l34.702-26.055 15.556-40.859-35.899-43.227-10.171-24.278-49.66 1.776.598 13.62-9.573 17.764-14.958 29.016-2.991 24.278z"/><path fill="#263238" d="M187.064 114.656c-9.573-13.62-17.351-21.91-21.539-39.082s1.197-12.435-2.393-27.24c-1.795-7.697-4.787-13.027-7.778-17.172-3.59-4.145-7.778-6.514-10.172-7.106-5.384-2.96-17.949-7.698-33.505.592-16.155 8.29-14.36 26.055-11.368 62.177 0 2.368-.599 5.33-1.795 7.698-2.393 5.33-6.582 10.066-10.171 14.212-4.189 5.921-8.377 11.843-11.368 18.356-7.18 13.62-13.762 30.792-11.967 37.306 2.992-.592 40.686 56.255 40.686 57.439 2.393-.592 12.564-.592 21.539-.592 12.565-.592 19.744-1.184 29.916 1.184 0-1.776-.599-3.553-.599-5.329 0-3.553.599-6.514 1.197-10.659.598-2.961 1.197-5.921 1.795-9.474-5.983 5.329-16.753 11.251-26.924 13.027-8.975 1.776-23.933-1.184-31.113-10.067.599 0 1.795 0 2.394-.592 1.795-.592 3.59-1.184 4.188-2.368 1.795-2.961.598-5.922-.598-7.698-1.197-1.777-10.172-8.291-14.36-11.843-4.188-3.553-6.581-5.33-8.975-7.698l-4.786-4.738c-1.197-1.184-1.795-2.368-2.393-2.961-1.197-2.96-1.795-6.513-1.197-11.25.598-6.514 2.991-11.844 5.983-17.765 1.197-2.369 4.188-7.106 4.188-7.106s-10.171 24.871-4.786 32.569c0 0 .598-7.698 2.991-15.396 1.795-5.33 4.787-13.028 8.377-17.173s12.564-19.541 13.163-29.016c0-4.145.598-8.29.598-11.25-2.393-2.37 39.489-8.29 41.882-1.777.598 2.369 8.975 23.686 13.761 34.937 2.393 5.33 5.385 10.067 7.18 15.988 1.795 6.514 2.991 15.396 2.991 24.279 0 1.776 0 4.737-.598 7.698 1.197 0 24.531-24.871-2.991-45.596 0 0 16.752 7.698 17.351 23.094.598 12.435-4.787 22.502-5.983 24.278.598 0 12.564 5.33 13.162 5.33 2.394 0 7.18-1.777 7.18-1.777.599-1.776 2.393-6.514 2.393-8.29 4.189-13.62-5.983-35.529-15.556-49.149"/><path fill="#ECEFF1" d="M111.078 75.574c4.296 0 7.778-5.303 7.778-11.843 0-6.541-3.482-11.843-7.778-11.843S103.3 57.19 103.3 63.73s3.483 11.843 7.778 11.843m26.924 1.185c5.618 0 10.172-6.098 10.172-13.62S143.62 49.52 138.002 49.52c-5.617 0-10.171 6.098-10.171 13.62s4.554 13.62 10.171 13.62"/><path fill="#212121" d="M115.424 64.541c-.497-3.893-2.761-6.817-5.056-6.53s-3.752 3.676-3.254 7.57c.497 3.893 2.76 6.817 5.055 6.53 2.295-.288 3.752-3.677 3.255-7.57m21.98 8.664c3.305 0 5.983-3.446 5.983-7.698 0-4.251-2.678-7.698-5.983-7.698s-5.983 3.447-5.983 7.698 2.679 7.698 5.983 7.698"/><path fill="#FFC107" d="M216.98 195.781c-2.393-1.184-6.582-2.961-10.172-8.29-1.794-2.961-1.196-11.251-4.188-14.804-1.795-2.368-4.188-1.184-4.786-1.184-5.385 1.184-17.95 9.474-26.326 0-1.197-1.184-2.992-2.961-5.983-2.961-2.992 0-4.188 1.184-5.385 3.553s-1.197 4.145-1.197 10.067c0 4.737 0 10.066-.598 14.211-1.197 10.067-2.991 15.989-2.991 21.91 0 6.514 1.794 10.659 4.188 12.435 1.795 1.777 4.786 2.961 11.368 2.961 6.581 0 10.769-2.368 14.958-6.514 2.991-2.96 5.384-4.145 13.761-10.066 6.581-4.145 16.753-9.475 18.547-11.251 1.197-1.184 2.992-1.777 2.992-5.33 0-2.96-2.393-4.145-4.188-4.737m-120.261 1.777c-5.983-9.475-6.582-11.251-10.77-17.173-3.59-5.921-11.368-17.172-16.154-17.172-3.59 0-5.385 1.776-7.778 4.145-2.394 2.368-4.787 7.698-8.975 10.659-3.59 2.96-13.761 2.368-16.154 5.921s2.393 8.883 2.393 17.765c0 3.553-2.992 5.921-3.59 8.29-.598 2.961-1.197 4.737 0 7.106 2.393 3.553 5.385 4.737 25.727 8.882 10.77 2.369 20.941 8.29 27.523 8.883 6.581.592 17.949 0 17.949-15.989.599-9.474-4.786-11.843-10.171-21.317m11.368-107.18c-3.59-2.369-6.582-4.738-6.582-8.29 0-3.553 2.394-4.738 5.984-7.698.598-.593 7.179-6.514 13.761-6.514s14.359 4.145 17.351 5.33c5.385 1.183 10.769 2.368 10.171 6.513-.598 5.921-1.196 7.106-7.18 10.067-4.188 1.184-11.966 7.698-17.351 7.698-2.393 0-5.983 0-8.376-.593-1.795-.592-4.787-3.553-7.778-6.513"/><path fill="#634703" d="M106.89 85.64c1.197 1.185 2.992 2.37 4.787 2.961 1.196.592 2.991 1.185 2.991 1.185h5.385c2.992 0 7.18-1.185 11.368-3.553 4.188-1.777 4.787-2.961 7.778-4.145 2.992-1.777 5.983-3.553 4.787-4.145-1.197-.593-2.394 0-6.582 2.368-3.59 2.369-6.581 3.553-10.171 5.33-1.795.592-4.188 1.776-5.983 1.776h-5.385c-1.795 0-2.992-.592-4.787-1.184-1.196-.593-1.795-1.185-2.393-1.185-1.196-.592-3.59-2.96-4.786-3.553 0 0-1.197 0-.599.593zm17.95-13.027c.598 1.184 1.795 1.184 2.393 1.776s1.196.593 1.196.593c.599-.593 0-1.777-.598-1.777 0-1.184-2.991-1.184-2.991-.592m-9.573 1.184c0 .593 1.196 1.185 1.196.593.599-.593 1.197-1.185 1.795-1.185 1.197-.592.598-1.184-1.196-1.184-1.197.592-1.197 1.184-1.795 1.776"/><path fill="#455A64" d="M173.303 178.609v1.776c1.197 2.369 4.188 2.961 6.581 2.961 3.59 0 7.18-2.369 8.975-4.737 0-.592.598-1.185 1.197-1.777 1.196-1.776 1.795-2.96 2.393-3.553 0 0-.598-.592-.598-1.184-.599-1.184-2.394-2.369-4.787-2.961-1.795-.592-4.786-1.184-5.983-1.184-5.385-.592-8.376 1.184-10.171 2.961 0 0 .598 0 .598.592 1.197 1.184 1.795 2.369 1.795 4.145.598 1.184 0 1.776 0 2.961"/></svg></g> <g transform="translate(300, 0)"><svg xmlns="http://www.w3.org/2000/svg" width="256" height="256" fill="none" viewBox="0 0 256 256"><rect width="256" height="256" fill="#242938" rx="60"/><path fill="#242938" fill-rule="evenodd" d="m203.819 68.835-63.14-37.48a23.79 23.79 0 0 0-24.361 0l-63.14 37.48C45.642 73.31 41 81.575 41 90.522v74.961c0 8.945 4.643 17.215 12.18 21.689l63.14 37.473a23.8 23.8 0 0 0 12.179 3.354 23.8 23.8 0 0 0 12.178-3.354l63.14-37.473c7.536-4.474 12.182-12.744 12.182-21.689v-74.96c0-8.948-4.646-17.214-12.18-21.688" clip-rule="evenodd"/><path fill="#fff" fill-rule="evenodd" d="m118.527 220.808-63.14-37.474c-6.176-3.666-10.013-10.506-10.013-17.852V90.523c0-7.346 3.837-14.186 10.01-17.85l63.143-37.48a19.55 19.55 0 0 1 9.972-2.747c3.495 0 6.943.95 9.973 2.747l63.14 37.48c5.204 3.089 8.714 8.438 9.701 14.437-2.094-4.469-6.817-5.684-12.32-2.47l-59.734 36.897c-7.448 4.354-12.94 9.24-12.945 18.221v73.604c-.004 5.378 2.168 8.861 5.504 9.871-1.096.19-2.201.322-3.319.322a19.55 19.55 0 0 1-9.972-2.747m85.292-151.974-63.14-37.478A23.8 23.8 0 0 0 128.499 28a23.8 23.8 0 0 0-12.181 3.356l-63.14 37.478C45.642 73.308 41 81.576 41 90.524v74.958c0 8.945 4.643 17.215 12.18 21.689l63.14 37.475A23.84 23.84 0 0 0 128.499 228a23.83 23.83 0 0 0 12.178-3.354l63.142-37.475c7.536-4.474 12.18-12.744 12.18-21.689V90.523c0-8.947-4.644-17.215-12.18-21.689" clip-rule="evenodd"/><path fill="#47B353" fill-rule="evenodd" d="m187.267 172.729-15.722 9.41c-.417.243-.723.516-.726 1.017v4.114c0 .503.338.712.754.467l15.966-9.703c.416-.243.48-.708.483-1.209v-3.629c0-.5-.338-.71-.755-.467" clip-rule="evenodd"/><path fill="#242938" fill-rule="evenodd" d="M153.788 138.098c.509-.258.928.059.935.725l.053 5.439c2.277-.906 4.255-1.148 6.047-.734.389.104.561.633.402 1.261l-1.197 4.82c-.093.364-.298.732-.545.961a1.3 1.3 0 0 1-.315.234.7.7 0 0 1-.472.077c-.818-.185-2.763-.61-5.823.94-3.21 1.625-4.333 4.414-4.311 6.484.027 2.472 1.295 3.221 5.673 3.296 5.834.097 8.355 2.646 8.416 8.522.06 5.77-3.02 11.966-7.732 15.763l.104 5.384c.006.648-.415 1.391-.924 1.649l-3.189 1.837c-.511.258-.93-.06-.937-.708l-.055-5.296c-2.731 1.135-5.499 1.409-7.267.699-.333-.13-.476-.622-.344-1.182l1.156-4.868c.092-.384.295-.768.571-1.012q.147-.142.299-.219c.183-.092.362-.112.514-.055 1.905.642 4.342.342 6.685-.844 2.977-1.506 4.968-4.542 4.937-7.558-.029-2.737-1.51-3.874-5.113-3.901-4.586.013-8.861-.891-8.932-7.642-.057-5.558 2.833-11.342 7.408-14.999l-.057-5.435c-.007-.668.401-1.403.926-1.667z" clip-rule="evenodd"/></svg></g> <g transform="translate(600, 0)"><svg xmlns="http://www.w3.org/2000/svg" width="256" height="256" fill="none" viewBox="0 0 256 256"><rect width="256" height="256" fill="#2396ED" rx="60"/><path fill="#fff" d="M141.187 122.123h20.717v-18.744h-20.717zm-24.662 0h20.716v-18.744h-20.716zm-24.17 0h20.717v-18.744H92.355zm-24.17 0H88.41v-18.744H68.186zm-24.662 0H64.24v-18.744H43.523zm24.663-22.69h20.223V80.69H68.186zm24.17 0h20.716V80.69H92.355zm24.169 0h20.716V80.69h-20.716zm0-22.69h20.716V58h-20.716zM228 113.739s-8.879-8.386-27.129-5.426c-1.973-14.305-17.264-22.69-17.264-22.69s-14.304 17.264-3.946 36.501c-2.959 1.48-7.892 3.453-15.291 3.453H28.726c-2.467 9.372-2.467 71.521 65.602 71.521 48.832 0 85.333-22.689 102.597-64.123C222.574 134.948 228 113.738 228 113.738"/></svg></g> <g transform="translate(900, 0)"><svg xmlns="http://www.w3.org/2000/svg" width="256" height="256" fill="none" viewBox="0 0 256 256"><rect width="256" height="256" fill="#009639" rx="60"/><path fill="#fff" d="M195.338 213a17.64 17.64 0 0 1-12.491-5.171L78.324 103.307v92.033c0 9.755-7.906 17.66-17.662 17.66C50.912 213 43 205.095 43 195.34V60.668c0-7.15 4.31-13.585 10.908-16.318a17.63 17.63 0 0 1 19.245 3.828L177.676 152.7V60.668c0-9.756 7.906-17.66 17.662-17.66S213 50.911 213 60.667V195.34c0 7.141-4.31 13.584-10.908 16.318a17.6 17.6 0 0 1-6.754 1.342"/></svg></g> <g transform="translate(1200, 0)"><svg xmlns="http://www.w3.org/2000/svg" width="256" height="256" fill="none" viewBox="0 0 256 256"><rect width="256" height="256" fill="#242938" rx="60"/><path stroke="#2088FF" stroke-linecap="round" stroke-linejoin="round" stroke-width="7.348" d="M76.065 43c18.262 0 33.065 14.803 33.065 33.065S94.327 109.13 76.065 109.13 43 94.327 43 76.065 57.803 43 76.065 43m47.761 66.13c12.174 0 22.044 9.87 22.044 22.044s-9.87 22.043-22.044 22.043-22.043-9.869-22.043-22.043 9.869-22.044 22.043-22.044m0 58.783c12.174 0 22.044 9.869 22.044 22.044 0 12.174-9.87 22.043-22.044 22.043s-22.043-9.869-22.043-22.043c0-12.175 9.869-22.044 22.043-22.044" clip-rule="evenodd"/><path stroke="#79B8FF" stroke-linecap="round" stroke-linejoin="round" stroke-width="7.348" d="M189.957 167.913c12.174 0 22.043 9.869 22.043 22.044 0 12.174-9.869 22.043-22.043 22.043-12.175 0-22.044-9.869-22.044-22.043 0-12.175 9.869-22.044 22.044-22.044" clip-rule="evenodd"/><path stroke="#2088FF" stroke-linecap="round" stroke-linejoin="round" stroke-width="7.348" d="m131.308 126.056-11.276 11.261-5.477-5.458"/><path stroke="#2088FF" stroke-linecap="round" stroke-linejoin="round" stroke-width="7.348" d="M189.957 109.13c12.174 0 22.043 9.87 22.043 22.044s-9.869 22.043-22.043 22.043c-12.175 0-22.044-9.869-22.044-22.043s9.869-22.044 22.044-22.044" clip-rule="evenodd"/><path stroke="#2088FF" stroke-linecap="round" stroke-linejoin="round" stroke-width="7.348" d="m197.438 126.056-11.276 11.261-5.476-5.458M65.043 64.353c0-2.891 3.186-4.65 5.633-3.108L89.46 73.078c2.297 1.447 2.285 4.8-.022 6.231L70.653 90.957c-2.447 1.518-5.61-.242-5.61-3.122zm7.348 44.777v55.109c0 14.203 11.673 25.717 25.718 25.717h3.674"/><path fill="#2088FF" d="M101.595 134.847a3.673 3.673 0 1 0 0-7.347zm-32.878-25.588c0 14.132 11.457 25.588 25.588 25.588V127.5c-10.074 0-18.24-8.167-18.24-18.241zm25.588 25.588h7.29V127.5h-7.29z"/><path stroke="#2088FF" stroke-linecap="round" stroke-linejoin="round" stroke-width="7.348" d="M146.071 131.174h21.84"/><path fill="#79B8FF" fill-rule="evenodd" d="M116.478 186.283a3.674 3.674 0 1 1 0 7.348 3.674 3.674 0 0 1 0-7.348m14.696 0a3.675 3.675 0 1 1-3.674 3.674 3.676 3.676 0 0 1 3.674-3.674" clip-rule="evenodd"/><path stroke="#79B8FF" stroke-linecap="round" stroke-width="7.348" d="m164.257 189.981-3.72.122"/></svg></g> <g transform="translate(1500, 0)"><svg xmlns="http://www.w3.org/2000/svg" width="256" height="256" fill="none" viewBox="0 0 256 256"><rect width="256" height="256" fill="#242938" rx="60"/><g clip-path="url(#Cloudflare-Dark_svg__a)"><path fill="#fff" d="M79 171.75h132.356v-36.625l-25.144-14.419-4.337-1.875L79 119.537z"/><path fill="#F38020" d="M165.575 166.887c1.231-4.218.763-8.087-1.287-10.962-1.875-2.638-5.044-4.163-8.85-4.338l-72.157-.937c-.469 0-.875-.238-1.112-.588s-.294-.812-.175-1.287c.237-.706.937-1.231 1.7-1.288l72.8-.937c8.625-.413 18-7.388 21.275-15.938l4.162-10.843a2.37 2.37 0 0 0 .125-1.407c-4.687-21.218-23.625-37.043-46.25-37.043-20.875 0-38.562 13.481-44.9 32.187a21.63 21.63 0 0 0-14.95-4.162c-10.025 1-18.125 9.025-19.05 19.05a22.4 22.4 0 0 0 .525 7.443A30.25 30.25 0 0 0 28 166.125c0 1.462.125 2.937.294 4.394.125.706.706 1.231 1.406 1.231h133.175a1.81 1.81 0 0 0 1.7-1.288z"/><path fill="#FAAE40" d="m188.55 120.519-2 .062c-.469 0-.875.35-1.063.813l-2.812 9.787c-1.231 4.219-.763 8.088 1.287 10.963 1.875 2.637 5.044 4.162 8.85 4.337l15.357.938c.468 0 .875.237 1.112.587s.294.875.175 1.288c-.237.706-.937 1.231-1.7 1.287l-16 .938c-8.675.412-18 7.387-21.275 15.937l-1.175 2.988c-.237.587.175 1.175.813 1.175H225.1a1.44 1.44 0 0 0 1.406-1.057 40 40 0 0 0 1.494-10.65 39.5 39.5 0 0 0-39.45-39.387"/></g><defs><clipPath id="Cloudflare-Dark_svg__a"><path fill="#fff" d="M28 28h200v200H28z"/></clipPath></defs></svg></g>
    </svg>