<svg width="273" height="48" viewBox="0 0 1456 256" fill="none" xmlns="http://www.w3.org/2000/svg" xmlns:xlink="http://www.w3.org/1999/xlink" version="1.1">
      <g transform="translate(0, 0)"><svg xmlns="http://www.w3.org/2000/svg" width="256" height="256" fill="none" viewBox="0 0 256 256"><rect width="256" height="256" fill="#394AAB" rx="60"/><path fill="#fff" d="M134.001 33c35.143 0 65.827 19.086 82.261 47.456l-.16-.273-41.349 23.808c-8.146-13.793-23.081-23.102-40.213-23.293l-.539-.003c-26.126 0-47.306 21.179-47.306 47.304a47.1 47.1 0 0 0 6.239 23.47c8.154 14.235 23.482 23.837 41.067 23.837 17.692 0 33.108-9.724 41.221-24.111l-.197.345 41.286 23.918c-16.254 28.13-46.517 47.157-81.252 47.536l-1.058.006c-35.255 0-66.026-19.204-82.419-47.724C43.579 161.353 39 145.212 39 127.999 39 75.533 81.532 33 134.001 33"/></svg></g> <g transform="translate(300, 0)"><svg xmlns="http://www.w3.org/2000/svg" width="256" height="256" fill="none" viewBox="0 0 256 256"><rect width="256" height="256" fill="#00599C" rx="60"/><path fill="#fff" d="M110.759 210.517C65.125 210.517 28 173.392 28 127.759 28 82.125 65.125 45 110.759 45c29.445 0 56.908 15.846 71.668 41.353l-35.816 20.726c-7.387-12.768-21.126-20.7-35.852-20.7-22.817 0-41.38 18.563-41.38 41.38 0 22.816 18.563 41.379 41.38 41.379 14.727 0 28.466-7.932 35.854-20.702l35.816 20.725c-14.76 25.51-42.223 41.356-71.67 41.356"/><path fill="#fff" d="M193.517 123.161h-9.196v-9.196h-9.194v9.196h-9.196v9.195h9.196v9.196h9.194v-9.196h9.196zm34.483 0h-9.196v-9.196h-9.194v9.196h-9.196v9.195h9.196v9.196h9.194v-9.196H228z"/></svg></g> <g transform="translate(600, 0)"><svg xmlns="http://www.w3.org/2000/svg" width="256" height="256" fill="none" viewBox="0 0 256 256"><rect width="256" height="256" fill="#F0DB4F" rx="60"/><path fill="#323330" d="m67.312 213.932 19.59-11.856c3.78 6.701 7.218 12.371 15.465 12.371 7.905 0 12.889-3.092 12.889-15.12v-81.798h24.058v82.138c0 24.917-14.606 36.259-35.916 36.259-19.245 0-30.416-9.967-36.087-21.996m85.07-2.576 19.588-11.341c5.157 8.421 11.859 14.607 23.715 14.607 9.969 0 16.325-4.984 16.325-11.858 0-8.248-6.53-11.17-17.528-15.98l-6.013-2.579c-17.357-7.388-28.871-16.668-28.871-36.258 0-18.044 13.748-31.792 35.229-31.792 15.294 0 26.292 5.328 34.196 19.247l-18.731 12.029c-4.125-7.389-8.591-10.31-15.465-10.31-7.046 0-11.514 4.468-11.514 10.31 0 7.217 4.468 10.139 14.778 14.608l6.014 2.577c20.449 8.765 31.963 17.699 31.963 37.804 0 21.654-17.012 33.51-39.867 33.51-22.339 0-36.774-10.654-43.819-24.574"/></svg></g> <g transform="translate(900, 0)"><svg xmlns="http://www.w3.org/2000/svg" width="256" height="256" fill="none" viewBox="0 0 256 256"><rect width="256" height="256" fill="#007ACC" rx="60"/><path fill="#fff" d="m56.611 128.849-.081 10.484h33.32v94.679h23.569v-94.679h33.32v-10.281c0-5.689-.121-10.443-.284-10.565-.122-.162-20.399-.244-44.983-.203l-44.739.122zm149.956-10.741c6.501 1.626 11.459 4.511 16.01 9.224 2.357 2.52 5.851 7.112 6.136 8.209.081.325-11.053 7.802-17.798 11.987-.244.163-1.22-.894-2.317-2.519-3.291-4.795-6.745-6.868-12.028-7.233-7.761-.529-12.759 3.535-12.718 10.321 0 1.991.284 3.169 1.097 4.795 1.706 3.535 4.876 5.648 14.832 9.955 18.326 7.884 26.168 13.085 31.045 20.48 5.445 8.249 6.664 21.415 2.966 31.208-4.063 10.646-14.141 17.879-28.323 20.277-4.388.772-14.791.65-19.504-.203-10.281-1.829-20.033-6.908-26.047-13.572-2.357-2.601-6.949-9.387-6.664-9.875.121-.162 1.178-.812 2.356-1.503 1.138-.65 5.446-3.129 9.509-5.486l7.355-4.267 1.544 2.276c2.154 3.291 6.867 7.802 9.712 9.305 8.167 4.308 19.383 3.698 24.909-1.259 2.357-2.154 3.332-4.389 3.332-7.68 0-2.967-.366-4.267-1.91-6.502-1.991-2.844-6.054-5.242-17.595-10.24-13.206-5.689-18.895-9.224-24.096-14.832-3.007-3.25-5.852-8.452-7.03-12.8-.975-3.616-1.219-12.678-.447-16.335 2.722-12.759 12.353-21.658 26.25-24.3 4.511-.853 14.994-.528 19.424.569"/></svg></g> <g transform="translate(1200, 0)"><svg xmlns="http://www.w3.org/2000/svg" width="256" height="256" fill="none" viewBox="0 0 256 256"><rect width="256" height="256" fill="#00B4E0" rx="60"/><path fill="#fff" d="M40.5 113.234c-.4 0-.5-.2-.3-.5l2.1-2.7c.2-.3.7-.5 1.1-.5h35.7c.4 0 .5.3.3.6l-1.7 2.6c-.2.3-.7.6-1 .6zm-15.1 9.2c-.4 0-.5-.2-.3-.5l2.1-2.7c.2-.3.7-.5 1.1-.5h45.6c.4 0 .6.3.5.6l-.8 2.4c-.1.4-.5.6-.9.6zm24.2 9.2c-.4 0-.5-.3-.3-.6l1.4-2.5c.2-.3.6-.6 1-.6h20c.4 0 .6.3.6.7l-.2 2.4c0 .4-.4.7-.7.7zm103.8-20.2c-6.3 1.6-10.6 2.8-16.8 4.4-1.5.4-1.6.5-2.9-1-1.5-1.7-2.6-2.8-4.7-3.8-6.3-3.1-12.4-2.2-18.1 1.5-6.8 4.4-10.3 10.9-10.2 19 .1 8 5.6 14.6 13.5 15.7 6.8.9 12.5-1.5 17-6.6.9-1.1 1.7-2.3 2.7-3.7h-19.3c-2.1 0-2.6-1.3-1.9-3 1.3-3.1 3.7-8.3 5.1-10.9.3-.6 1-1.6 2.5-1.6h36.4c-.2 2.7-.2 5.4-.6 8.1-1.1 7.2-3.8 13.8-8.2 19.6-7.2 9.5-16.6 15.4-28.5 17-9.8 1.3-18.9-.6-26.9-6.6-7.4-5.6-11.6-13-12.7-22.2-1.3-10.9 1.9-20.7 8.5-29.3 7.1-9.3 16.5-15.2 28-17.3 9.4-1.7 18.4-.6 26.5 4.9 5.3 3.5 9.1 8.3 11.6 14.1.6.9.2 1.4-1 1.7"/><path fill="#fff" d="M186.5 166.734c-9.1-.2-17.4-2.8-24.4-8.8-5.9-5.1-9.6-11.6-10.8-19.3-1.8-11.3 1.3-21.3 8.1-30.2 7.3-9.6 16.1-14.6 28-16.7 10.2-1.8 19.8-.8 28.5 5.1 7.9 5.4 12.8 12.7 14.1 22.3 1.7 13.5-2.2 24.5-11.5 33.9-6.6 6.7-14.7 10.9-24 12.8-2.7.5-5.4.6-8 .9m23.8-40.4c-.1-1.3-.1-2.3-.3-3.3-1.8-9.9-10.9-15.5-20.4-13.3-9.3 2.1-15.3 8-17.5 17.4-1.8 7.8 2 15.7 9.2 18.9 5.5 2.4 11 2.1 16.3-.6 7.9-4.1 12.2-10.5 12.7-19.1"/></svg></g>
    </svg>