<svg width="273" height="48" viewBox="0 0 1456 256" fill="none" xmlns="http://www.w3.org/2000/svg" xmlns:xlink="http://www.w3.org/1999/xlink" version="1.1">
      <g transform="translate(0, 0)"><svg width="256" height="256" viewBox="0 0 256 256" fill="none" xmlns="http://www.w3.org/2000/svg">
<g clip-path="url(#clip0_120_2353)">
<path d="M196 0H60C26.8629 0 0 26.8629 0 60V196C0 229.137 26.8629 256 60 256H196C229.137 256 256 229.137 256 196V60C256 26.8629 229.137 0 196 0Z" fill="#F4F2ED"/>
<path d="M223.295 119.23L136.838 32.7376C135.655 31.5526 134.249 30.6127 132.702 29.9714C131.155 29.33 129.496 29 127.822 29C126.148 29 124.489 29.33 122.942 29.9714C121.395 30.6127 119.989 31.5526 118.806 32.7376L100.86 50.6911L123.633 73.4735C128.93 71.6162 134.995 72.8853 139.214 77.1075C141.223 79.1209 142.626 81.6591 143.262 84.432C143.898 87.2049 143.741 90.1009 142.81 92.789L164.76 114.748C170.07 112.916 176.196 114.097 180.434 118.351C181.844 119.761 182.962 121.435 183.725 123.278C184.487 125.12 184.879 127.094 184.879 129.088C184.878 131.082 184.486 133.056 183.723 134.899C182.959 136.74 181.841 138.414 180.431 139.824C179.022 141.234 177.349 142.352 175.508 143.114C173.666 143.878 171.693 144.27 169.699 144.269C167.706 144.269 165.732 143.876 163.891 143.113C162.05 142.35 160.376 141.231 158.967 139.821C154.512 135.363 153.411 128.801 155.663 123.309L135.193 102.83V156.722C136.679 157.457 138.036 158.428 139.214 159.595C140.623 161.004 141.741 162.677 142.505 164.52C143.267 166.361 143.659 168.335 143.659 170.329C143.659 172.323 143.267 174.297 142.505 176.139C141.741 177.981 140.623 179.655 139.214 181.065C137.806 182.474 136.132 183.593 134.292 184.355C132.45 185.118 130.477 185.511 128.484 185.511C126.491 185.511 124.518 185.118 122.677 184.355C120.836 183.593 119.162 182.474 117.753 181.065C116.343 179.655 115.224 177.982 114.46 176.141C113.696 174.298 113.303 172.323 113.303 170.329C113.303 168.335 113.696 166.361 114.46 164.519C115.224 162.676 116.343 161.003 117.753 159.595C119.22 158.134 120.848 157.025 122.723 156.282V101.889C120.916 101.146 119.22 100.051 117.753 98.5774C115.623 96.4483 114.174 93.7326 113.592 90.7766C113.011 87.8205 113.322 84.7581 114.486 81.9797L92.0228 59.5193L32.739 118.766C31.5537 119.951 30.6134 121.357 29.9718 122.905C29.3302 124.454 29 126.113 29 127.789C29 129.465 29.3302 131.125 29.9718 132.673C30.6134 134.221 31.5537 135.628 32.739 136.812L119.202 223.298C120.385 224.483 121.791 225.423 123.338 226.065C124.885 226.706 126.544 227.036 128.218 227.036C129.892 227.036 131.551 226.706 133.098 226.065C134.645 225.423 136.051 224.483 137.234 223.298L223.295 137.338C224.48 136.154 225.421 134.747 226.062 133.199C226.704 131.651 227.034 129.992 227.034 128.316C227.034 126.64 226.704 124.979 226.062 123.431C225.421 121.883 224.48 120.476 223.295 119.292" fill="#F1502F"/>
</g>
<defs>
<clipPath id="clip0_120_2353">
<rect width="256" height="256" fill="white"/>
</clipPath>
</defs>
</svg>
</g> <g transform="translate(300, 0)"><svg xmlns="http://www.w3.org/2000/svg" width="256" height="256" fill="none" viewBox="0 0 256 256"><rect width="256" height="256" fill="#F4F2ED" rx="60"/><path fill="#161614" d="M128.001 30C72.779 30 28 74.77 28 130.001c0 44.183 28.653 81.667 68.387 94.89 4.997.926 6.832-2.169 6.832-4.81 0-2.385-.093-10.262-.136-18.618-27.82 6.049-33.69-11.799-33.69-11.799-4.55-11.559-11.104-14.632-11.104-14.632-9.073-6.207.684-6.079.684-6.079 10.042.705 15.33 10.305 15.33 10.305 8.919 15.288 23.394 10.868 29.1 8.313.898-6.464 3.489-10.875 6.349-13.372-22.211-2.529-45.56-11.104-45.56-49.421 0-10.918 3.906-19.839 10.303-26.842-1.039-2.519-4.462-12.69.968-26.464 0 0 8.398-2.687 27.508 10.25 7.977-2.215 16.531-3.326 25.03-3.364 8.498.038 17.06 1.149 25.051 3.365 19.087-12.939 27.473-10.25 27.473-10.25 5.443 13.773 2.019 23.945.98 26.463 6.412 7.003 10.292 15.924 10.292 26.842 0 38.409-23.394 46.866-45.662 49.341 3.587 3.104 6.783 9.189 6.783 18.519 0 13.38-.116 24.149-.116 27.443 0 2.661 1.8 5.779 6.869 4.797C199.383 211.64 228 174.169 228 130.001 228 74.771 183.227 30 128.001 30M65.454 172.453c-.22.497-1.002.646-1.714.305-.726-.326-1.133-1.004-.898-1.502.215-.512.999-.654 1.722-.311.727.326 1.141 1.01.89 1.508m4.919 4.389c-.477.443-1.41.237-2.042-.462-.654-.697-.777-1.629-.293-2.078.491-.442 1.396-.235 2.051.462.654.706.782 1.631.284 2.078m3.374 5.616c-.613.426-1.615.027-2.234-.863-.613-.889-.613-1.955.013-2.383.621-.427 1.608-.043 2.236.84.611.904.611 1.971-.015 2.406m5.707 6.504c-.548.604-1.715.442-2.57-.383-.874-.806-1.118-1.95-.568-2.555.555-.606 1.729-.435 2.59.383.868.804 1.133 1.957.548 2.555m7.376 2.195c-.242.784-1.366 1.14-2.499.807-1.13-.343-1.871-1.26-1.642-2.052.235-.788 1.364-1.159 2.505-.803 1.13.341 1.871 1.252 1.636 2.048m8.394.932c.028.824-.932 1.508-2.121 1.523-1.196.027-2.163-.641-2.176-1.452 0-.833.939-1.51 2.134-1.53 1.19-.023 2.163.639 2.163 1.459m8.246-.316c.143.804-.683 1.631-1.864 1.851-1.161.212-2.236-.285-2.383-1.083-.144-.825.697-1.651 1.856-1.865 1.183-.205 2.241.279 2.391 1.097"/></svg></g> <g transform="translate(600, 0)"><svg xmlns="http://www.w3.org/2000/svg" width="256" height="256" fill="none" viewBox="0 0 256 256"><rect width="256" height="256" fill="#F4F2ED" rx="60"/><path fill="#000" d="M67.895 193.68h-2.147c-.86 8.853-2.062 19.614-17.178 19.614h-6.957c-4.037 0-4.208-.607-4.208-3.471v-46.085c0-2.951 0-4.166 8.073-4.166h2.834v-2.604c-3.092.261-10.821.261-14.343.261-3.35 0-10.049 0-12.969-.261v2.604h1.975c6.614 0 6.786.954 6.786 4.079v45.564c0 3.125-.172 4.079-6.786 4.079H21v2.691h44.576z"/><path fill="#000" d="M66.435 156.881c-.344-1.041-.516-1.388-1.632-1.388-1.117 0-1.374.347-1.718 1.388l-13.828 35.41c-.601 1.476-1.632 4.166-6.957 4.166v2.17h13.313v-2.17c-2.663 0-4.294-1.215-4.294-2.951 0-.434.085-.607.257-1.215l2.92-7.464h17.006l3.436 8.853c.171.347.343.781.343 1.041 0 1.736-3.264 1.736-4.895 1.736v2.17h16.92v-2.17h-1.203c-4.037 0-4.466-.607-5.067-2.343zm-3.436 6.162 7.644 19.615H55.355z"/><path fill="#000" d="M135.231 157.489H82.925L81.38 176.93h2.061c1.203-13.974 2.491-16.838 15.46-16.838 1.546 0 3.779 0 4.638.174 1.804.347 1.804 1.302 1.804 3.298v45.564c0 2.951 0 4.166-9.018 4.166h-3.436v2.691c3.521-.261 12.196-.261 16.147-.261s12.797 0 16.319.261v-2.691h-3.436c-9.018 0-9.018-1.215-9.018-4.166v-45.564c0-1.736 0-2.951 1.546-3.298.945-.174 3.264-.174 4.896-.174 12.883 0 14.171 2.864 15.374 16.838h2.147z"/><path fill="#000" d="M181.267 213.207h-2.147c-2.148 13.279-4.123 19.615-18.81 19.615h-11.337c-4.037 0-4.209-.608-4.209-3.472v-23.086h7.644c8.332 0 9.276 2.778 9.276 10.155h2.148v-22.913h-2.148c0 7.377-.944 10.068-9.276 10.068h-7.644v-20.743c0-2.864.172-3.471 4.209-3.471h10.994c13.14 0 15.374 4.773 16.748 16.837h2.147l-2.405-19.441H128.36v2.604h1.975c6.614 0 6.785.954 6.785 4.079v45.304c0 3.124-.171 4.079-6.785 4.079h-1.975v2.69h49.3z"/><path fill="#000" d="m207.119 182.571 11.767-17.358c1.804-2.777 4.724-5.554 12.368-5.641v-2.604h-20.442v2.604c3.436.087 5.326 1.996 5.326 3.992 0 .868-.172 1.042-.773 1.996l-9.792 14.581-10.993-16.664c-.172-.26-.602-.954-.602-1.302 0-1.041 1.89-2.516 5.497-2.603v-2.604c-2.92.261-9.19.261-12.453.261-2.663 0-7.988-.087-11.166-.261v2.604h1.632c4.724 0 6.356.607 7.988 3.037l15.717 24.041-14 20.916c-1.202 1.736-3.779 5.728-12.368 5.728v2.691h20.442v-2.691c-3.951-.086-5.411-2.43-5.411-3.992 0-.781.257-1.128.859-2.083l12.11-18.139 13.57 20.656c.172.347.43.694.43.955 0 1.041-1.89 2.517-5.583 2.603v2.691c3.006-.261 9.276-.261 12.454-.261 3.607 0 7.558.087 11.165.261v-2.691h-1.632c-4.466 0-6.27-.434-8.073-3.124z"/><path fill="teal" d="M66.772 20c1.51 2.72 3.08 5.04 4.718 7.052-.749-.11-1.52-.174-2.323-.165-1.583.017-3.276.28-5.11.857 3.2 2.68 5.905 4.636 8.29 6.143-3.685-1.177-7.654-1.345-12.317.868 3.406 2.13 6.264 3.671 8.766 4.822-3.9-.72-7.945-.392-12.359 2.519 2.915 1.299 5.435 2.274 7.672 3.015-3.672.128-7.305 1.262-10.862 4.636 3.085.765 5.728 1.272 8.053 1.61-2.845.575-5.637 1.94-8.342 4.667 2.096.453 3.983.795 5.71 1.053-2.126 1.028-4.14 2.62-5.979 5.06 2.416.187 4.553.27 6.474.278-2.325 1.076-4.501 2.776-6.443 5.504 3.45.172 6.332.155 8.818.01-2.732 1.117-5.25 3.004-7.403 6.267 4.287.063 7.683-.143 10.53-.495-3.534.96-6.806 2.89-9.498 6.97 3.463.05 6.354-.076 8.838-.31-3.036 1.654-5.644 4.164-7.361 8.445 3.126-.592 5.746-1.225 8.002-1.889-2.35 1.71-4.326 4.112-5.648 7.723a90 90 0 0 0 5.637-1.435c-1.507 1.822-2.67 4.103-3.325 7.093a88 88 0 0 0 6-2.447c-1.665 1.948-2.936 4.413-3.563 7.703 3.206-1.282 5.814-2.507 8.012-3.676-2.015 2.154-3.514 4.925-4.109 8.787 3.904-1.724 6.899-3.32 9.334-4.822-2.797 2.344-4.947 5.46-5.69 10.273 5.101-2.251 8.661-4.294 11.43-6.184-1.189 2.405-1.82 5.222-1.517 8.734 4.93-3.782 8.052-6.843 10.376-9.54-.157 1.742-.033 3.636.485 5.731 3.54-6.081 7.056-7.856 10.696-9.885-5.797 2.919-4.938 5.116-4.938 7.665 4.423-4.657 10.59-9.596 12.477-12.69-2.523 3.788-3.549 7.375-4.213 10.542-12.905 6.825-20.762 8.608-29.57 11.336 3.416 1.254 7.078 2.481 5.564 4.223l-4.037 4.027c2.58-.802 5.212-1.947 7.496-.382-.224 2.117-2.9 3.185-5.183 4.419 4.02-1.449 4.89-1.114 5.947-.774.528 2.536-1.305 3.9-2.499 5.575 10.128-7.7 23.342-13.783 32.648-16.324 13.09-4.408 29.968-8.99 34.558-20.164l4.605-18.43C161 78.17 165.95 72.13 168.298 64.79c14.985-2.899 27.101-1.852 39.741-1.528-1.152-.192-38.594-6.536-38.594-6.536-10.943-14.971-27.254-4.795-32.628 9.995-1.356 3.733-9.094 3.734-11.336-.01C116.614 47.62 89.687 27.438 66.773 20z"/><path fill="#fff" d="m155.177 59.07-.098.157c-.388.723-1.045 1.217-1.969 1.516-.923.298-2.106.394-3.484.334l-.866-.04.63.611c.319.308.409.553.413.768s-.088.446-.295.709c-.415.524-1.239 1.094-2.008 1.673l-.256.177.177.256c.641.984.935 1.742 1.004 2.323s-.066.999-.335 1.358c-.537.72-1.715 1.208-2.776 1.811l-.196.099.039.236c.091.554-.058 1.006-.453 1.457-.395.45-1.059.88-1.949 1.26l-.236.098.039.256c.178 1.185.534 2.217 1.28 2.874.682.602 1.715.76 3.032.493.229 1.263.558 2.412 1.319 3.17.77.767 1.991.994 3.622.57.367.885.904 1.515 1.516 1.93.672.454 1.551.637 2.273.862l.428-.461c-.717-.223-1.776-.567-2.347-.953s-1.035-.915-1.358-1.83l-.099-.316-.315.099c-1.677.515-2.607.283-3.248-.355-.64-.637-1-1.79-1.22-3.13l-.059-.354-.355.098c-1.382.361-2.199.177-2.756-.315-.52-.459-.828-1.272-1.004-2.283.801-.37 1.488-.776 1.929-1.28a2.42 2.42 0 0 0 .591-1.732c.977-.538 2.156-1 2.835-1.91.355-.476.539-1.101.453-1.83-.079-.665-.404-1.431-.965-2.343.689-.508 1.436-1.016 1.91-1.615.263-.333.461-.7.452-1.122-.004-.232-.227-.443-.354-.67 1.198.017 2.289-.062 3.189-.353.949-.307 1.694-.866 2.185-1.634 1.418.007 2.886.319 4.371.511 1.525.199 3.077.252 4.547-.393l-.275-.61c-1.301.57-2.69.547-4.174.354s-3.03-.543-4.587-.532z"/><path fill="#fff" stroke="#fff" stroke-width=".661" d="M160.686 58.824a2.797 2.797 0 1 1-5.594 0 2.797 2.797 0 0 1 5.594 0Z"/><path fill="#fff" d="M169.041 56.2c-2.512 3.267-3.143 2.423-4.672 2.97l-.256.1.04.275c.588 3.281 2.533 4.324 4.051 5.517l.084-.266.404-.077c-1.521-1.195-3.186-2.208-3.791-4.997 1.113-.263 2.176.073 4.547-3.012zM72.344 33.88c4.746 2.942 12.556 5.976 17.572 9.146 2.759 1.757 5.237 3.507 7.165 5.02s3.354 3.075 3.879 3.583.88.268.531-.394-2.066-2.191-4.016-3.72-4.43-3.273-7.205-5.04c-5.552-3.535-12.067-6.696-17.925-8.596m-.855-6.829c1.99.46 4.926 2.156 8.19 3.972 3.265 1.815 6.824 4.049 10.08 6.22 3.256 2.172 5.766 4.073 7.773 5.605 1.906 1.63 2.847 2.687 3.212 2.684.05.01.099.01.177 0a.4.4 0 0 0 .275-.197.36.36 0 0 0 .02-.296c-.021-.063-.032-.097-.059-.137-.108-.162-.272-.314-.512-.532-.479-.437-1.272-1.079-2.283-1.85-2.023-1.544-4.962-3.648-8.23-5.828-3.266-2.179-6.85-4.432-10.137-6.26-1.17-.433-6.901-3.464-8.506-3.38m-2.718 12.527c6.09 2.486 14.755 5.406 20.538 9.041 3.108 1.974 5.814 3.94 7.835 5.552a48 48 0 0 1 2.48 2.106c.627.576.979 1.098 1.182 1.24.423.3.748.1.551-.373-.148-.358-.638-.77-1.28-1.359-.64-.59-1.5-1.312-2.52-2.126a92 92 0 0 0-7.894-5.61c-6.258-3.975-13.74-7.469-20.892-8.471m-4.687 5.525c4.746.003 14.552 4.348 18.685 6.525 6.7 3.574 12.795 8.168 16.162 11.379.374.356.92.042.492-.453-3.128-3.625-9.589-7.897-16.34-11.497s-13.74-5.96-19-5.954m-2.742 6.252c7.136 1.044 15.69 3.925 21.922 7.046 3.478 1.766 6.58 3.657 8.958 5.335a28.7 28.7 0 0 1 4.567 4.055c.433.489.95.51.551-.354s-2.335-2.553-4.744-4.252c-2.41-1.7-5.53-3.595-9.036-5.375-7.01-3.56-14.994-6.36-22.218-6.455m2.355 5.311c-1.772-.154-3.368.21-4.994.413 6.34-.595 15.207 2.317 21.118 5.04 6.962 3.265 12.743 7.746 15.513 10.592.433.445.74-.122.512-.414-2.579-3.292-8.72-7.492-15.75-10.788-5.272-2.471-11.08-4.378-16.399-4.842m-4.505 5.714c6.24.462 14.594 1.957 20.446 4.643 5.885 2.753 10.352 6.322 12.599 8.347.346.312.957.091.472-.472-2.05-2.383-6.82-5.68-12.776-8.465-5.957-2.787-13.194-4.571-20.741-4.053m5.604 5.193c-1.317-.045-1.934.202-3.204.339 4.235.186 10.965 1.313 14.681 2.574 4.823 1.674 8.789 4.194 11.045 6.162.435.38.76-.13.472-.453-2.113-2.37-6.406-4.64-11.3-6.339-3.67-1.273-7.745-2.15-11.694-2.283m-.182 6.141c9.053.611 14.528 2.206 18.724 5.965.314.282.81-.106.472-.472-4.306-4.666-12.784-5.966-19.196-5.493m6.971 5.438c-2.744-.22-5.04.38-7.541 1.212 7.319-1.167 10.362-.607 15.908 1.997.632.297.595-.403.315-.571-2.946-1.77-5.938-2.417-8.682-2.638m-.26 5.098c-2.595.23-4.799 1.121-6.615 2.599 7.248-2.794 9.252-2.238 14.795-.667.73.207.503-.495.217-.61-3.32-1.33-5.802-1.552-8.397-1.322m14.361 4.489c-3.867-.418-8.224.051-12.048.749-3.824.697-7.112 2.114-8.969 3.623 6.358-2.685 7.517-2.679 9.088-2.974 3.767-.687 7.5-.955 11.89-.748.398.019.378-.613.04-.65zm2.244 3.13c-4.19-.158-8.519.88-12.264 1.95s-6.524 2.53-8.357 4.02c3.709-1.783 7.16-2.99 8.534-3.39 3.692-1.056 7.417-1.97 12.127-1.91.366.005.603-.645-.04-.67m3.423 2.577c-3.947.583-8.085 1.749-11.694 2.973-3.607 1.224-6.175 2.678-7.85 4.418 4.29-2.463 6.65-3.327 8.047-3.808 3.564-1.209 6.891-2.05 11.615-2.933.567-.106.112-.684-.118-.65m2.007 3.288c-7.915 1.261-13.045 4.676-16.305 8.063 5.053-3.807 8.568-5.853 16.443-7.413.499-.1.348-.728-.138-.65m3.858 2.893c-7.962 1.226-12.553 6.066-14.465 9.261 5.037-5.032 8.957-7.771 14.602-8.611.572-.085.426-.737-.137-.65m2.402 2.521c-1.241.155-2.93 1.035-4.527 2.048s-2.801 2.245-3.52 3.833c1.924-1.985 2.693-2.522 3.874-3.282a17 17 0 0 1 4.331-1.949c.588-.171.144-.687-.157-.65"/><path fill="#fff" stroke="#fff" stroke-width=".661" d="M160.686 58.824a2.797 2.797 0 1 1-5.594 0 2.797 2.797 0 0 1 5.594 0Z"/><path fill="#37C871" stroke="#fff" stroke-width=".661" d="M160.686 58.824a2.797 2.797 0 1 1-5.594 0 2.797 2.797 0 0 1 5.594 0Z"/></svg></g> <g transform="translate(900, 0)"><svg xmlns="http://www.w3.org/2000/svg" width="256" height="256" fill="none" viewBox="0 0 256 256"><rect width="256" height="256" fill="#FF6C37" rx="60"/><path fill="#EEE" d="m169.061 88.612-50.54 50.541-14.253-14.252c49.703-49.702 54.614-45.39 64.793-36.289"/><path fill="#FF6C37" d="M118.521 140.35c-.36 0-.599-.119-.839-.359l-14.372-14.252a1.157 1.157 0 0 1 0-1.676c50.541-50.542 55.81-45.751 66.47-36.17.24.24.359.48.359.839 0 .36-.119.599-.359.837l-50.541 50.422c-.119.24-.479.359-.718.359m-12.576-15.449 12.576 12.575 48.744-48.744c-8.862-7.905-14.851-10.3-61.32 36.169"/><path fill="#EEE" d="m133.012 153.645-13.773-13.773 50.541-50.54c13.534 13.652-6.707 35.809-36.768 64.313"/><path fill="#FF6C37" d="M133.012 154.843c-.36 0-.598-.12-.838-.36l-13.773-13.773c-.24-.239-.24-.479-.24-.838 0-.36.12-.599.36-.839l50.54-50.54a1.16 1.16 0 0 1 1.677 0 14.58 14.58 0 0 1 4.671 11.138c-.239 13.293-15.33 30.18-41.439 54.852-.359.24-.719.36-.958.36m-12.096-14.971c7.664 7.784 10.899 10.899 12.096 12.096 20.121-19.162 39.642-38.804 39.762-52.337.12-3.114-1.077-6.228-3.114-8.624z"/><path fill="#EEE" d="m104.508 125.26 10.18 10.18q.359.36 0 .719c-.12.12-.12.12-.239.12l-21.08 4.551c-1.077.12-2.035-.599-2.275-1.677-.12-.599.12-1.197.48-1.557l12.215-12.216c.24-.24.599-.36.719-.12"/><path fill="#FF6C37" d="M93.01 142.028c-1.796 0-3.114-1.438-3.114-3.235 0-.837.36-1.676.959-2.275l12.215-12.216c.719-.599 1.678-.599 2.396 0l10.18 10.18c.718.599.718 1.677 0 2.395-.24.24-.479.36-.839.48l-21.078 4.551c-.24 0-.48.12-.719.12m11.139-15.451-11.737 11.737c-.24.24-.36.599-.12.958.12.36.478.48.838.36l19.761-4.312z"/><path fill="#EEE" d="M195.769 60.588c-7.665-7.425-20.001-7.186-27.427.599-7.425 7.784-7.185 20 .599 27.426a19.35 19.35 0 0 0 23.475 2.635l-13.654-13.654z"/><path fill="#FF6C37" d="M182.355 95.2c-11.377 0-20.599-9.222-20.599-20.6S170.978 54 182.355 54c5.27 0 10.42 2.036 14.252 5.749.24.24.36.48.36.838 0 .36-.12.6-.36.839l-16.168 16.168 12.695 12.695c.48.48.48 1.198 0 1.677l-.239.24c-3.114 1.915-6.827 2.994-10.54 2.994m0-38.684c-10.06 0-18.204 8.143-18.084 18.204 0 10.06 8.143 18.204 18.204 18.085 2.755 0 5.509-.6 8.024-1.917l-12.575-12.455c-.24-.24-.359-.48-.359-.839 0-.36.119-.599.359-.838l16.049-16.049c-3.234-2.754-7.306-4.191-11.618-4.191"/><path fill="#EEE" d="m196.128 60.947-.239-.24-17.127 16.887 13.534 13.534c1.318-.839 2.634-1.796 3.713-2.874a19.195 19.195 0 0 0 .119-27.307"/><path fill="#FF6C37" d="M192.416 92.445c-.36 0-.599-.12-.839-.36l-13.653-13.653c-.24-.24-.359-.479-.359-.838 0-.36.119-.6.359-.839L194.93 59.75c.48-.48 1.198-.48 1.677 0l.36.24c8.024 8.023 8.024 20.958.12 29.103-1.198 1.197-2.516 2.275-3.953 3.113-.359.12-.598.24-.718.24m-11.977-14.851 12.097 12.096c.958-.598 1.916-1.437 2.634-2.156 6.827-6.827 7.186-17.964.599-25.15z"/><path fill="#EEE" d="M171.098 90.767a7.374 7.374 0 0 0-10.42 0l-45.152 45.152 7.546 7.545 47.786-41.917c3.114-2.636 3.353-7.307.719-10.42-.24-.12-.36-.24-.479-.36"/><path fill="#FF6C37" d="M122.952 144.662c-.359 0-.599-.12-.839-.359l-7.545-7.545a1.16 1.16 0 0 1 0-1.677l45.151-45.152a8.53 8.53 0 0 1 12.097 0 8.53 8.53 0 0 1 0 12.097l-.359.359-47.787 41.918q-.179.359-.718.359m-5.749-8.743 5.869 5.869 46.948-41.2c2.634-2.156 2.874-6.108.718-8.742s-6.108-2.874-8.743-.72c-.119.12-.239.24-.479.36z"/><path fill="#EEE" d="M80.914 187.3c-.48.239-.719.718-.6 1.197l2.037 8.624c.48 1.197-.24 2.635-1.557 2.994-.958.359-2.035 0-2.634-.718l-13.175-13.055 42.996-42.996 14.851.239 10.06 10.061c-2.395 2.036-16.887 16.048-51.978 33.654"/><path fill="#FF6C37" d="M79.956 201.311c-.958 0-1.916-.359-2.515-1.077l-13.055-13.055c-.24-.239-.359-.479-.359-.838s.12-.599.36-.839l42.995-42.995c.24-.24.599-.36.839-.36l14.851.24c.359 0 .598.12.837.359l10.061 10.06c.24.24.359.599.359.958 0 .36-.119.599-.479.839l-.838.719c-12.695 11.137-29.942 22.276-51.38 32.935l2.037 8.503c.359 1.557-.36 3.234-1.797 4.072-.719.359-1.317.479-1.916.479m-13.175-14.97 12.337 12.216c.358.599 1.077.838 1.676.479s.839-1.078.48-1.677l-2.036-8.623c-.24-1.078.238-2.036 1.197-2.515 21.198-10.659 38.325-21.677 50.9-32.576l-8.862-8.863-13.773-.24z"/><path fill="#EEE" d="m54.805 196.641 10.3-10.3 15.33 15.33-24.432-1.676c-1.078-.12-1.797-1.078-1.677-2.157 0-.479.12-.958.48-1.197"/><path fill="#FF6C37" d="m80.435 202.749-24.552-1.677c-1.797-.12-2.995-1.676-2.875-3.473.12-.719.36-1.437.959-1.916l10.3-10.3a1.157 1.157 0 0 1 1.676 0l15.33 15.33c.36.359.48.838.24 1.318q-.36.718-1.078.718m-15.33-14.731-9.461 9.461c-.36.24-.36.839 0 1.078.12.12.24.24.479.24l21.198 1.437zm38.684-39.163c-.719 0-1.198-.599-1.198-1.198 0-.359.12-.598.36-.838l11.617-11.617a1.157 1.157 0 0 1 1.677 0l7.545 7.545c.359.359.479.718.359 1.198-.12.359-.479.718-.957.838l-19.163 4.072zm11.617-11.138-7.904 7.905 12.934-2.756z"/><path fill="#EEE" d="m122.832 143.584-13.174 2.875c-.958.24-1.917-.359-2.156-1.317-.12-.599 0-1.198.479-1.677l7.305-7.306z"/><path fill="#FF6C37" d="M109.418 147.657a2.964 2.964 0 0 1-2.994-2.994c0-.838.359-1.557.838-2.155l7.306-7.306a1.157 1.157 0 0 1 1.677 0l7.545 7.545c.359.359.479.718.359 1.198-.12.359-.479.718-.957.838l-13.175 2.874zm5.988-9.94-6.467 6.467c-.239.24-.239.479-.12.719q.18.359.719.359l11.018-2.396zm80.842-65.274c-.239-.718-1.078-1.077-1.797-.837-.718.238-1.077 1.077-.837 1.796 0 .12.119.24.119.359.718 1.438.48 3.234-.479 4.551-.479.6-.359 1.438.12 1.917.599.478 1.437.36 1.916-.24 1.797-2.276 2.156-5.15.958-7.546"/></svg></g> <g transform="translate(1200, 0)"><svg width="256" height="256" viewBox="0 0 256 256" fill="none" xmlns="http://www.w3.org/2000/svg">
<rect width="256" height="256" rx="50" fill="#022384"/>
<g clip-path="url(#clip0_10_2)">
<path d="M94.1774 115.629C91.2794 112.378 87.6947 110.742 83.4349 110.742C80.8092 110.742 78.3905 111.254 76.1677 112.289C73.9451 113.325 72.0277 114.727 70.4041 116.52C68.7918 118.323 67.5171 120.416 66.5802 122.843C65.643 125.259 65.1746 127.875 65.1746 130.703C65.1746 133.475 65.6105 136.002 66.471 138.284C67.3428 140.555 68.552 142.503 70.1209 144.128C71.6898 145.754 73.5529 147.023 75.7101 147.936C77.8674 148.849 80.2317 149.305 82.8029 149.305C83.9687 149.305 85.0472 149.216 86.0279 149.049C87.0083 148.882 87.9455 148.604 88.8387 148.225C89.7322 147.836 90.6037 147.346 91.4754 146.756C92.3362 146.155 93.2404 145.398 94.1774 144.496V154.148H94.1664V155.083H82.2691L73.3241 165.37V167.14H106.892V162.965V111.755H94.1774V115.629ZM94.1447 133.319C93.698 134.343 93.1095 135.245 92.3907 136.013C91.6605 136.781 90.7998 137.371 89.7976 137.805C88.7953 138.239 87.7274 138.451 86.6054 138.451C85.4287 138.451 84.3391 138.239 83.3367 137.805C82.3343 137.371 81.4628 136.781 80.7327 136.013C80.0028 135.245 79.4363 134.343 79.0115 133.319C78.5866 132.294 78.3795 131.17 78.3795 129.979C78.3795 128.832 78.5973 127.752 79.0442 126.75C79.4908 125.749 80.079 124.88 80.8419 124.135C81.5935 123.389 82.4542 122.799 83.4349 122.342C84.4153 121.886 85.4721 121.663 86.5944 121.663C87.673 121.663 88.7081 121.875 89.7212 122.309C90.7236 122.732 91.6061 123.333 92.3579 124.101C93.1095 124.869 93.698 125.749 94.1556 126.75C94.6023 127.752 94.8203 128.855 94.8203 130.057C94.8093 131.204 94.5915 132.294 94.1447 133.319Z" fill="white"/>
<path d="M58.7032 116.23C58.0278 115.418 57.2652 114.716 56.4479 114.093C55.718 113.548 54.9444 113.069 54.1056 112.679C53.7025 112.49 53.2776 112.334 52.8307 112.189C52.188 111.978 51.4907 111.833 50.7715 111.711H41.7069L35.7146 118.691V117.878V111.855H23V148.682H35.7146V132.885V123.834H37.4796H41.0205H47.5031H47.6557L48.6471 123.812V148.671H61.3616V125.637C61.3616 123.678 61.1765 121.93 60.8061 120.394C60.4357 118.869 59.7383 117.488 58.7032 116.23Z" fill="white"/>
<path d="M144.283 111.755H134.859C134.859 111.755 131.493 111.755 130.414 111.755L124.901 118.1V111.755H112.175V148.581H124.923L124.934 123.934H129.118H134.184L144.283 112.267V111.755Z" fill="white"/>
<path d="M212.989 128.765L230.378 112.378V111.755H213.621L200.286 125.036V89H187.571V148.57H200.286V133.575L214.264 148.57H231.372V147.869L212.989 128.765Z" fill="white"/>
<path d="M177.634 115.952C175.694 114.204 173.396 112.846 170.748 111.866C168.101 110.887 165.235 110.397 162.141 110.397C159.003 110.397 156.105 110.898 153.468 111.9C150.821 112.902 148.544 114.282 146.615 116.019C144.698 117.766 143.194 119.826 142.116 122.197C141.037 124.568 140.503 127.118 140.503 129.845C140.503 132.862 141.037 135.601 142.116 138.061C143.194 140.522 144.676 142.637 146.583 144.407C148.478 146.177 150.734 147.546 153.359 148.504C155.985 149.461 158.84 149.94 161.934 149.94C165.072 149.94 167.981 149.461 170.683 148.504C173.374 147.546 175.684 146.199 177.601 144.44C179.519 142.692 181.033 140.61 182.134 138.195C183.234 135.779 183.79 133.118 183.79 130.191C183.79 127.274 183.245 124.602 182.177 122.186C181.088 119.781 179.573 117.7 177.634 115.952ZM169.691 133.385C169.245 134.41 168.656 135.311 167.937 136.08C167.207 136.848 166.347 137.438 165.344 137.872C164.331 138.306 163.274 138.518 162.152 138.518C161.03 138.518 159.962 138.306 158.949 137.872C157.946 137.438 157.075 136.848 156.356 136.08C155.626 135.311 155.048 134.41 154.602 133.385C154.155 132.361 153.937 131.226 153.937 129.979C153.937 128.832 154.155 127.752 154.602 126.75C155.048 125.749 155.626 124.869 156.356 124.101C157.086 123.333 157.946 122.732 158.949 122.308C159.962 121.874 161.019 121.663 162.152 121.663C163.274 121.663 164.342 121.874 165.344 122.308C166.347 122.732 167.218 123.333 167.937 124.101C168.667 124.869 169.245 125.771 169.691 126.795C170.138 127.819 170.356 128.91 170.356 130.057C170.356 131.248 170.138 132.361 169.691 133.385Z" fill="white"/>
</g>
<defs>
<clipPath id="clip0_10_2">
<rect width="210" height="78.1395" fill="white" transform="translate(23 89)"/>
</clipPath>
</defs>
</svg>
</g>
    </svg>